<svg width="10" height="10" viewBox="0 0 10 10" fill="none" xmlns="http://www.w3.org/2000/svg">
<path d="M0.939954 2.81547C0.980594 2.77473 1.02887 2.74241 1.08202 2.72035C1.13518 2.6983 1.19216 2.68694 1.2497 2.68694C1.30725 2.68694 1.36423 2.6983 1.41738 2.72035C1.47051 2.7424 1.51876 2.7747 1.55939 2.81541L1.55935 2.81537L1.47096 2.90374L1.55945 2.81547L0.939954 2.81547ZM0.939954 2.81547L1.02845 2.90375L0.939954 2.81547ZM5.11948 7.1642L5.16738 7.27965C5.11423 7.30171 5.05725 7.31306 4.9997 7.31306C4.94216 7.31306 4.88518 7.30171 4.83202 7.27965C4.77892 7.25762 4.73068 7.22533 4.69007 7.18464C4.69003 7.1846 4.68999 7.18456 4.68995 7.18453L0.940178 3.43475C0.940153 3.43473 0.940128 3.4347 0.940103 3.43468L5.11948 7.1642ZM5.11948 7.1642L5.16738 7.27965C5.22049 7.25762 5.26873 7.22533 5.30934 7.18464L5.11948 7.1642ZM8.44006 2.81537L4.9997 6.25633L5.30945 7.18453L9.05934 3.43464C9.1 3.39398 9.13226 3.34571 9.15427 3.29258C9.17627 3.23945 9.1876 3.18251 9.1876 3.125C9.1876 3.0675 9.17627 3.01056 9.15427 2.95743C9.13226 2.9043 9.1 2.85602 9.05934 2.81536C9.01868 2.7747 8.97041 2.74245 8.91728 2.72044C8.86415 2.69843 8.80721 2.68711 8.7497 2.68711C8.6922 2.68711 8.63526 2.69843 8.58213 2.72044L8.62996 2.83592L8.58213 2.72044C8.529 2.74245 8.48073 2.7747 8.44007 2.81536L8.44006 2.81537Z" fill="#1D252C" stroke="#1D252C" stroke-width="0.25"/>
</svg>
